#!OML:ASF E:\I on waltz\Acrobat_Osman\acrobat\cartwheel_test 2\Patient 1\Session 1\acrobat.ASF
:FULLY-SPECIFIED
:DEGREES
34
root 9.15343 12.3996 -2.35966 -164.969 -0.066355 180.268
lowerback 16.3274 0.384907 -1.55404
upperback 6.97296 -0.776288 2.70006
thorax -1.68189 -0.922803 3.87146
lowerneck -1.49455 -2.74674 -7.54474
upperneck -11.8375 -2.75638 5.08371
head -3.42081 -0.942636 3.09247
rclavicle -1.66979e-014 -1.23246e-014
rhumerus -27.4223 -4.02337 -77.0283
rradius 59.7238
rwrist 43.3912
rhand -29.5933 -53.0796
rfingers 7.12502
rthumb -2.92468 -83.0393
lclavicle -1.66979e-014 -1.23246e-014
lhumerus -28.8281 27.4137 68.6654
lradius 54.5455
lwrist 63.2898
lhand -15.6173 62.4856
lfingers 7.12502
lthumb 10.5693 -92.1998
rfemur -75.2749 1.11403 22.2694
rtibia 87.6301
rfoot -23.4119 -15.5182
rtoes -4.42332
lfemur -75.3446 0.0751705 -17.1202
ltibia 89.2985
lfoot -20.012 13.9751
ltoes -28.3296
35
root 9.10195 12.2042 -2.28858 -169.642 -0.709079 180.284
lowerback 16.2936 0.337186 -1.34129
upperback 6.76768 -0.767953 2.87425
thorax -1.88099 -0.902449 3.9364
lowerneck -1.13624 -3.11189 -7.87423
upperneck -12.2164 -3.20312 5.64077
head -3.58006 -1.15811 3.37541
rclavicle 5.96354e-015 -1.27222e-014
rhumerus -13.2758 -4.82276 -81.4984
rradius 60.6956
rwrist 45.0186
rhand -32.1177 -50.0848
rfingers 7.12502
rthumb -5.36235 -79.9969
lclavicle 5.96354e-015 -1.27222e-014
lhumerus -14.2548 53.8883 71.7285
lradius 52.2248
lwrist 55.9847
lhand -6.72608 68.1146
lfingers 7.12502
lthumb 19.1343 -97.1934
rfemur -71.6469 1.31994 21.8594
rtibia 89.8868
rfoot -24.1331 -16.7569
rtoes -4.3827
lfemur -71.758 -0.865136 -17.3494
ltibia 91.394
lfoot -21.0878 14.5448
ltoes -27.639
36
root 9.04946 12.002 -2.18309 -173.835 -1.21263 180.433
lowerback 15.6589 0.295683 -1.32224
upperback 6.63047 -0.771289 3.1523
thorax -1.68581 -0.895714 4.20669
lowerneck -2.7221 -3.34808 -8.11308
upperneck -13.1264 -3.10942 6.43889
head -3.20426 -1.04468 3.33292
rclavicle 2.0276e-014 3.18055e-014
rhumerus 1.58179 -3.69332 -86.2695
rradius 59.3981
rwrist 49.4796
rhand -28.4028 -47.4157
rfingers 7.12502
rthumb -1.77493 -77.3881
lclavicle 2.0276e-014 3.18055e-014
lhumerus 14.8348 60.551 98.2522
lradius 56.0115
lwrist 49.288
lhand -4.35308 60.5368
lfingers 7.12502
lthumb 21.4149 -270.627
rfemur -68.6155 1.4868 21.6689
rtibia 91.7391
rfoot -24.4382 -17.704
rtoes -4.73338
lfemur -68.6615 -1.55707 -17.612
ltibia 93.0968
lfoot -21.7773 15.3392
ltoes -28.0456
37
root 8.99882 11.8177 -2.06414 -177.289 -1.5105 180.844
lowerback 15.0137 0.229381 -0.842114
upperback 5.87716 -0.615824 3.28935
thorax -2.15258 -0.73377 4.04801
lowerneck -4.08242 -3.81988 -8.35034
upperneck -14.3748 -3.24801 7.29496
head -3.31503 -0.986443 3.63139
rclavicle -2.98177e-015 4.77083e-015
rhumerus 15.8617 0.0706458 -89.7629
rradius 56.682
rwrist 54.343
rhand -20.6878 -48.433
rfingers 7.12502
rthumb 5.67579 -78.337
lclavicle -2.98177e-015 4.77083e-015
lhumerus 57.3875 62.5759 139.039
lradius 51.8257
lwrist 49.2376
lhand -2.23698 64.354
lfingers 7.12502
lthumb 23.4461 -92.9455
rfemur -66.3058 1.51956 21.8467
rtibia 93.1687
rfoot -24.5795 -18.2482
rtoes -5.17749
lfemur -66.5069 -1.74618 -17.71
ltibia 94.4429
lfoot -21.7325 15.7372
ltoes -28.631
38
root 8.94891 11.6627 -1.95945 -180.357 -1.9072 181.86
lowerback 14.4037 0.0520369 0.368406
upperback 4.94708 -0.506253 3.53789
thorax -2.81686 -0.59392 3.60301
lowerneck -4.86585 -4.29182 -8.59161
upperneck -16.0623 -3.37733 7.91263
head -3.65734 -0.900559 3.87502
rclavicle -4.57205e-015 -1.82882e-014
rhumerus 30.1626 1.13396 -91.8754
rradius 47.2234
rwrist 74.7888
rhand -21.9429 -61.5414
rfingers 7.12502
rthumb 4.46389 91.4744
lclavicle -4.57205e-015 -1.82882e-014
lhumerus 50.7504 40.9263 126.375
lradius 61.4027
lwrist 57.7186
lhand -10.898 61.9765
lfingers 7.12502
lthumb 15.1187 -91.4043
rfemur -64.0999 1.22901 22.7405
rtibia 94.0812
rfoot -24.4476 -18.6933
rtoes -6.57236
lfemur -64.8165 -1.54785 -17.1966
ltibia 95.5313
lfoot -21.3654 15.4043
ltoes -28.5979
39
root 8.91268 11.5793 -1.89593 -182.708 -2.0388 180.658
lowerback 13.0746 0.0734355 -1.03214
upperback 4.18433 -0.478341 3.15767
thorax -2.89821 -0.490405 3.97451
lowerneck -5.06662 -2.39411 -8.8632
upperneck -18.2278 -4.04245 7.934
head -4.28641 -2.62853 4.09361
rclavicle 2.78299e-015 2.38542e-015
rhumerus 44.9397 8.47827 -85.4399
rradius 46.7346
rwrist 54.8858
rhand -31.2326 -60.2789
rfingers 7.12502
rthumb -4.50777 90.211
lclavicle 2.78299e-015 2.38542e-015
lhumerus 48.8859 17.1511 106.86
lradius 88.3664
lwrist 90.2823
lhand -29.4274 79.0927
lfingers 7.12502
lthumb -2.76448 -109.055
rfemur -62.3729 0.636644 21.2731
rtibia 94.5534
rfoot -23.7901 -18.5024
rtoes -8.57076
lfemur -62.7622 -1.14204 -19.0493
ltibia 95.6689
lfoot -20.9732 15.1713
ltoes -28.506
40
root 8.87813 11.6303 -1.8772 -185.466 -2.02465 181.066
lowerback 11.9648 -0.192081 -1.21487
upperback 3.8498 -0.788673 3.52452
thorax -2.61206 -0.625447 4.49032
lowerneck -5.77756 -4.7317 -9.18648
upperneck -18.7125 -3.10231 8.977
head -4.28401 -0.525482 4.33478
rclavicle -6.26172e-015 -3.18055e-014
rhumerus 59.7627 11.2734 -75.3279
rradius 48.1353
rwrist 34.4631
rhand -39.7241 -58.7387
rfingers 7.12502
rthumb -12.7019 -88.3324
lclavicle -6.26172e-015 -3.18055e-014
lhumerus 55.1898 1.08426 80.9663
lradius 105.37
lwrist 83.5461
lhand -33.2375 -97.4588
lfingers 7.12502
lthumb -6.44347 -127.341
rfemur -58.672 0.317961 21.5781
rtibia 93.4899
rfoot -23.2569 -18.321
rtoes -9.71617
lfemur -59.3693 -0.0853409 -19.0282
ltibia 94.9977
lfoot -20.9548 14.0729
ltoes -27.8564
41
root 8.82507 11.8368 -1.90507 -188.268 -1.78913 181.008
lowerback 11.3137 -0.512375 -1.46063
upperback 3.48456 -1.17921 3.50428
thorax -2.59897 -0.790457 4.64965
lowerneck -7.34736 -4.90118 -9.86037
upperneck -17.8552 -3.05183 9.96593
head -3.72964 -0.470014 4.72007
rclavicle 1.1281e-014 2.46493e-014
rhumerus 73.0067 9.10475 -61.8017
rradius 50.0072
rwrist 8.55846
rhand -48.7312 -55.8823
rfingers 7.12502
rthumb -21.3708 -84.7237
lclavicle 1.1281e-014 2.46493e-014
lhumerus 69.0776 9.44245 80.4457
lradius 86.0867
lwrist 92.3466
lhand -38.5646 -96.7286
lfingers 7.12502
lthumb -11.5838 -126.388
rfemur -53.7118 -0.0929164 21.2932
rtibia 91.0514
rfoot -22.6543 -17.4546
rtoes -9.35779
lfemur -54.6188 1.1663 -19.4523
ltibia 92.8483
lfoot -20.4425 12.7468
ltoes -26.233
42
root 8.75115 12.2155 -1.99922 -190.77 -1.13978 181.785
lowerback 10.0312 -0.47996 -0.107076
upperback 2.82313 -0.893111 3.1659
thorax -2.63365 -0.595398 3.46397
lowerneck -7.87239 -5.04998 -9.68992
upperneck -16.437 -3.35793 10.7039
head -3.16648 -0.723043 4.88719
rclavicle -9.19379e-016 1.66979e-014
rhumerus 80.908 0.436882 -50.0465
rradius 55.8795
rwrist -14.461
rhand -58.842 -46.6212
rfingers 7.12502
rthumb -31.0487 -74.0134
lclavicle -9.19379e-016 1.66979e-014
lhumerus 83.8342 16.1819 85.0254
lradius 66.7942
lwrist 97.6877
lhand -43.3496 -92.0271
lfingers 7.12502
lthumb -16.195 -121.371
rfemur -47.6233 -0.404936 21.8616
rtibia 86.7907
rfoot -21.6122 -16.0555
rtoes -6.6726
lfemur -49.0184 2.96802 -18.8533
ltibia 89.3727
lfoot -18.9379 11.4244
ltoes -25.6456
43
root 8.70479 12.7255 -2.14482 -194.078 -1.1768 180.236
lowerback 8.95412 -0.411554 -1.67771
upperback 2.34775 -0.851552 2.45465
thorax -2.52396 -0.515088 3.58777
lowerneck -5.73019 -4.95642 -8.96978
upperneck -16.6885 -3.64956 10.3227
head -3.5862 -1.03238 4.68785
rclavicle 1.76421e-014 -1.27222e-014
rhumerus 84.8409 -10.0233 -44.62
rradius 59.6011
rwrist -31.4656
rhand -59.3334 5.52653
rfingers 7.12502
rthumb -31.517 -21.7751
lclavicle 1.76421e-014 -1.27222e-014
lhumerus 97.5639 21.7698 86.3671
lradius 71.82
lwrist 69.0801
lhand -33.6534 -99.6891
lfingers 7.12502
lthumb -6.84497 -129.558
rfemur -39.9531 -1.49415 19.7284
rtibia 81.5315
rfoot -18.9206 -13.9452
rtoes -8.06916
lfemur -41.1927 4.65634 -20.4165
ltibia 84.1681
lfoot -16.102 9.6501
ltoes -26.6012
